<svg width="14" height="14" viewBox="0 0 14 14" fill="none" xmlns="http://www.w3.org/2000/svg">
<path d="M14 6.99941C14 10.8654 10.8654 13.9988 6.99941 13.9988C3.13464 14 0 10.8654 0 6.99941C0 3.13113 3.13464 0 6.99941 0C10.8665 0 14 3.13113 14 6.99941Z" fill="url(#paint0_linear_758_8760)"/>
<path d="M12.9457 6.99859C12.9457 10.283 10.2838 12.9438 6.9994 12.9438C3.71499 12.9438 1.05423 10.283 1.05423 6.99859C1.05423 3.71535 3.71616 1.05225 6.9994 1.05225C10.2826 1.05225 12.9457 3.71535 12.9457 6.99859Z" fill="url(#paint1_linear_758_8760)"/>
<g style="mix-blend-mode:screen">
<path d="M12.2496 6.99867C12.2496 9.89812 9.89892 12.2476 6.99946 12.2476C4.1 12.2476 1.74931 9.89812 1.74931 6.99867C1.74931 4.09804 4.1 1.74852 6.99946 1.74852C9.89892 1.74969 12.2496 4.09921 12.2496 6.99867Z" fill="url(#paint2_linear_758_8760)"/>
</g>
<g style="mix-blend-mode:multiply">
<path d="M12.0414 6.9986C12.0414 9.78105 9.78428 12.0393 6.99949 12.0393C4.2147 12.0393 1.95879 9.78105 1.95879 6.9986C1.95879 4.21381 4.2147 1.95673 6.99949 1.95673C9.78428 1.9579 12.0414 4.21381 12.0414 6.9986Z" fill="url(#paint3_radial_758_8760)"/>
</g>
<g style="mix-blend-mode:screen" opacity="0.7">
<path d="M12.0414 6.9986C12.0414 9.78105 9.78428 12.0393 6.99949 12.0393C4.2147 12.0393 1.95879 9.78105 1.95879 6.9986C1.95879 4.21381 4.2147 1.95673 6.99949 1.95673C9.78428 1.9579 12.0414 4.21381 12.0414 6.9986Z" fill="url(#paint4_radial_758_8760)"/>
</g>
<path d="M6.9994 1.05225C3.71616 1.05225 1.05423 3.71535 1.05423 6.99859C1.05423 10.283 3.71616 12.9438 6.9994 12.9438C10.2826 12.9438 12.9457 10.283 12.9457 6.99859C12.9457 3.71535 10.2838 1.05225 6.9994 1.05225ZM6.9994 12.8396C3.77934 12.8396 1.15954 10.2186 1.15954 6.99976C1.15954 3.77736 3.77934 1.15755 6.9994 1.15755C10.2206 1.15755 12.8416 3.77736 12.8416 6.99976C12.8416 10.2186 10.2218 12.8396 6.9994 12.8396Z" fill="url(#paint5_linear_758_8760)"/>
<path d="M6.99946 1.74965C4.1 1.74965 1.74931 4.09917 1.74931 6.9998C1.74931 9.89925 4.1 12.2488 6.99946 12.2488C9.89892 12.2488 12.2496 9.89925 12.2496 6.9998C12.2496 4.09917 9.89892 1.74965 6.99946 1.74965ZM6.99946 12.1458C4.16202 12.1458 1.85462 9.83607 1.85462 6.9998C1.85462 4.16118 4.16202 1.85379 6.99946 1.85379C9.83807 1.85379 12.1455 4.16118 12.1455 6.9998C12.1466 9.83607 9.83807 12.1458 6.99946 12.1458Z" fill="url(#paint6_linear_758_8760)"/>
<path d="M6.99941 0C3.13464 0 0 3.13113 0 6.99941C0 10.8654 3.13464 13.9988 6.99941 13.9988C10.8654 13.9988 14 10.8642 14 6.99941C14 3.13113 10.8665 0 6.99941 0ZM6.99941 13.8959C3.19783 13.8959 0.104137 10.801 0.104137 6.99941C0.104137 3.19666 3.19783 0.102967 6.99941 0.102967C10.8033 0.102967 13.8959 3.19666 13.8959 6.99941C13.897 10.801 10.8033 13.8959 6.99941 13.8959Z" fill="url(#paint7_linear_758_8760)"/>
<g style="mix-blend-mode:lighten">
<path d="M1.70708 4.06994C2.74026 2.20952 4.72589 0.946999 6.99935 0.946999C10.3352 0.946999 13.0498 3.66041 13.0498 6.99865C13.0498 7.37659 13.0159 7.74399 12.9504 8.10086C13.1341 8.12778 13.3178 8.15352 13.5015 8.18043C13.5705 8.18862 13.6384 8.20032 13.7098 8.20851C13.78 7.81537 13.8162 7.41052 13.8162 6.99865C13.8162 3.23333 10.7658 0.182938 7.00052 0.182938C4.47783 0.182938 2.27574 1.55427 1.09747 3.59138C1.29288 3.75987 1.49647 3.919 1.70708 4.06994Z" fill="url(#paint8_linear_758_8760)"/>
</g>
<path opacity="0.8" d="M11.7183 10.7804C10.6091 12.1599 8.90547 13.0468 6.99941 13.0468C4.25207 13.0468 1.92829 11.2051 1.19114 8.69528C0.900961 8.59114 0.610781 8.48467 0.324112 8.37468C0.960635 11.4777 3.70798 13.8132 6.99941 13.8132C9.35244 13.8132 11.427 12.6186 12.6509 10.8061C12.3397 10.8026 12.0284 10.7932 11.7183 10.7804Z" fill="url(#paint9_linear_758_8760)"/>
<path d="M13.7087 8.20949C14.8074 0.814584 4.89687 -2.53418 1.09645 3.59235C4.74593 -3.03849 15.2064 0.775972 13.7087 8.20949Z" fill="white"/>
<path d="M13.7087 8.20949C14.8074 0.814584 4.89687 -2.53418 1.09645 3.59235C4.74593 -3.03849 15.2064 0.775972 13.7087 8.20949Z" fill="white"/>
<path opacity="0.8" d="M12.7246 7.96381C13.649 1.58103 5.31685 -1.31024 2.12137 3.97852C5.18932 -1.74551 13.9848 1.5471 12.7246 7.96381Z" fill="url(#paint10_linear_758_8760)"/>
<path d="M11.9898 7.77079C12.7995 2.33109 5.50756 -0.130758 2.71341 4.37522C5.39874 -0.500503 13.092 2.30418 11.9898 7.77079Z" fill="white"/>
<path d="M11.5745 12.0276C8.29944 14.8358 4.41712 14.1139 1.84294 11.3221C0.131118 9.4628 -0.383717 6.54579 0.951344 3.80898C-2.71685 10.4293 6.08097 17.2532 11.5745 12.0276Z" fill="white"/>
<path opacity="0.8" d="M10.8432 11.3244C5.93119 15.5075 -0.952384 9.99171 1.82304 4.46893C-1.38648 10.1181 6.08213 15.8082 10.8432 11.3244Z" fill="url(#paint11_linear_758_8760)"/>
<path opacity="0.8" d="M10.6488 10.5125C6.7279 14.369 0.444576 9.92508 2.44073 5.01425C0.0806808 10.055 6.87767 14.6241 10.6488 10.5125Z" fill="url(#paint12_linear_758_8760)"/>
<defs>
<linearGradient id="paint0_linear_758_8760" x1="2.14426" y1="2.14334" x2="11.3231" y2="11.3222" gradientUnits="userSpaceOnUse">
<stop stop-color="#FF8676"/>
<stop offset="0.0806" stop-color="white"/>
<stop offset="0.1935" stop-color="#F19A8C"/>
<stop offset="0.2642" stop-color="#D96457"/>
<stop offset="0.3185" stop-color="#C54943"/>
<stop offset="0.3617" stop-color="#B93736"/>
<stop offset="0.378" stop-color="#B83535"/>
<stop offset="0.4708" stop-color="#B53233"/>
<stop offset="0.5147" stop-color="#BE403E"/>
<stop offset="0.5587" stop-color="#CB534D"/>
<stop offset="0.6761" stop-color="#F08F7C"/>
<stop offset="0.7008" stop-color="#EE8C79"/>
<stop offset="0.7209" stop-color="#E68271"/>
<stop offset="0.7394" stop-color="#D97063"/>
<stop offset="0.757" stop-color="#C65750"/>
<stop offset="0.7737" stop-color="#AF3837"/>
<stop offset="0.7852" stop-color="#9B2227"/>
<stop offset="0.8077" stop-color="#A1282B"/>
<stop offset="0.8427" stop-color="#B23C3A"/>
<stop offset="0.8856" stop-color="#CD6057"/>
<stop offset="0.9346" stop-color="#F2947F"/>
<stop offset="0.9377" stop-color="#F59782"/>
</linearGradient>
<linearGradient id="paint1_linear_758_8760" x1="0.944125" y1="0.942961" x2="12.5459" y2="12.5448" gradientUnits="userSpaceOnUse">
<stop offset="0.1483" stop-color="#FF8676"/>
<stop offset="0.2053" stop-color="#F19A8C"/>
<stop offset="0.2892" stop-color="#D96457"/>
<stop offset="0.3296" stop-color="#C54943"/>
<stop offset="0.3617" stop-color="#B93736"/>
<stop offset="0.378" stop-color="#B83535"/>
<stop offset="0.4708" stop-color="#B53233"/>
<stop offset="0.5147" stop-color="#BE403E"/>
<stop offset="0.5587" stop-color="#CB534D"/>
<stop offset="0.6761" stop-color="#F08F7C"/>
<stop offset="0.9021" stop-color="#9B4222"/>
<stop offset="0.9152" stop-color="#A1282B"/>
<stop offset="0.9354" stop-color="#B23C3A"/>
<stop offset="0.9603" stop-color="#CD6057"/>
<stop offset="0.9887" stop-color="#F2947F"/>
<stop offset="0.9905" stop-color="#F59782"/>
</linearGradient>
<linearGradient id="paint2_linear_758_8760" x1="3.52331" y1="3.00958" x2="11.0678" y2="11.6667" gradientUnits="userSpaceOnUse">
<stop stop-color="#FF8676"/>
<stop offset="0.0645" stop-color="white"/>
<stop offset="0.1935" stop-color="#F19A8C"/>
<stop offset="0.2642" stop-color="#D96457"/>
<stop offset="0.2946" stop-color="#C54943"/>
<stop offset="0.3187" stop-color="#B93736"/>
<stop offset="0.3915" stop-color="#B55932"/>
<stop offset="0.3924" stop-color="#B65A33"/>
<stop offset="0.4329" stop-color="#DD6057"/>
<stop offset="0.464" stop-color="#F67B6E"/>
<stop offset="0.4818" stop-color="#FF8676"/>
<stop offset="0.5042" stop-color="#FF9F92"/>
<stop offset="0.5551" stop-color="#FFD3CD"/>
<stop offset="0.5928" stop-color="#FFF3F1"/>
<stop offset="0.6128" stop-color="white"/>
<stop offset="0.6917" stop-color="#F59782"/>
<stop offset="0.7842" stop-color="#F08F7C"/>
<stop offset="0.8359" stop-color="#CD6057"/>
<stop offset="0.8947" stop-color="#A95431"/>
<stop offset="0.9241" stop-color="#9B4222"/>
</linearGradient>
<radialGradient id="paint3_radial_758_8760" cx="0" cy="0" r="1" gradientUnits="userSpaceOnUse" gradientTransform="translate(8.08986 3.59147) scale(8.16856)">
<stop offset="0.3816" stop-color="white"/>
<stop offset="0.5772" stop-color="#F59782"/>
<stop offset="0.7623" stop-color="#F08F7C"/>
<stop offset="0.7991" stop-color="#EB8876"/>
<stop offset="0.8522" stop-color="#DC7567"/>
<stop offset="0.9154" stop-color="#C4544D"/>
<stop offset="0.9857" stop-color="#A24C2A"/>
<stop offset="1" stop-color="#9B4222"/>
</radialGradient>
<radialGradient id="paint4_radial_758_8760" cx="0" cy="0" r="1" gradientUnits="userSpaceOnUse" gradientTransform="translate(5.1926 11.8199) scale(10.0131)">
<stop offset="0.4231"/>
<stop offset="0.4583" stop-color="#050403"/>
<stop offset="0.5018" stop-color="#140D0B"/>
<stop offset="0.5497" stop-color="#2E1B18"/>
<stop offset="0.6007" stop-color="#51312A"/>
<stop offset="0.6542" stop-color="#7E4B41"/>
<stop offset="0.7089" stop-color="#B46C5D"/>
<stop offset="0.7622" stop-color="#F08F7C"/>
<stop offset="0.9015" stop-color="#F59782"/>
<stop offset="0.9783" stop-color="white"/>
</radialGradient>
<linearGradient id="paint5_linear_758_8760" x1="4.55782" y1="1.57569" x2="9.28674" y2="12.0767" gradientUnits="userSpaceOnUse">
<stop stop-color="#D96457"/>
<stop offset="0.0787" stop-color="#C54943"/>
<stop offset="0.1413" stop-color="#B93736"/>
<stop offset="0.1528" stop-color="#B83535"/>
<stop offset="0.2181" stop-color="#B55932"/>
<stop offset="0.305" stop-color="#BE403E"/>
<stop offset="0.3921" stop-color="#CB534D"/>
<stop offset="0.6615" stop-color="#9B4222"/>
<stop offset="0.8817" stop-color="#9B4222"/>
<stop offset="1" stop-color="#4A0300"/>
</linearGradient>
<linearGradient id="paint6_linear_758_8760" x1="4.55915" y1="1.57898" x2="9.28742" y2="12.0785" gradientUnits="userSpaceOnUse">
<stop stop-color="#D96457"/>
<stop offset="0.0787" stop-color="#C54943"/>
<stop offset="0.1413" stop-color="#B93736"/>
<stop offset="0.1528" stop-color="#B83535"/>
<stop offset="0.2181" stop-color="#B53233"/>
<stop offset="0.305" stop-color="#BE403E"/>
<stop offset="0.3921" stop-color="#CB534D"/>
<stop offset="0.6615" stop-color="#9B4222"/>
<stop offset="0.8817" stop-color="#9B4222"/>
<stop offset="1" stop-color="#4A0300"/>
</linearGradient>
<linearGradient id="paint7_linear_758_8760" x1="1.86384" y1="0.0632664" x2="11.3905" y2="12.9278" gradientUnits="userSpaceOnUse">
<stop stop-color="#D96457"/>
<stop offset="0.0787" stop-color="#C54943"/>
<stop offset="0.1413" stop-color="#B93736"/>
<stop offset="0.1528" stop-color="#B83535"/>
<stop offset="0.2181" stop-color="#B55932"/>
<stop offset="0.305" stop-color="#BE403E"/>
<stop offset="0.3921" stop-color="#CB534D"/>
<stop offset="0.6615" stop-color="#9B4222"/>
<stop offset="0.8817" stop-color="#9B4222"/>
<stop offset="1" stop-color="#4A0300"/>
</linearGradient>
<linearGradient id="paint8_linear_758_8760" x1="9.63019" y1="0.497045" x2="7.45137" y2="5.78193" gradientUnits="userSpaceOnUse">
<stop offset="0.0217" stop-color="white"/>
<stop offset="0.2933" stop-color="#F59782"/>
<stop offset="0.5567" stop-color="#F08F7C"/>
<stop offset="0.5926" stop-color="#B46C5D"/>
<stop offset="0.6295" stop-color="#7E4B41"/>
<stop offset="0.6655" stop-color="#51312A"/>
<stop offset="0.6999" stop-color="#2E1B18"/>
<stop offset="0.7322" stop-color="#140D0B"/>
<stop offset="0.7615" stop-color="#050403"/>
<stop offset="0.7852"/>
</linearGradient>
<linearGradient id="paint9_linear_758_8760" x1="6.43538" y1="10.9249" x2="6.33105" y2="13.5677" gradientUnits="userSpaceOnUse">
<stop stop-color="white"/>
<stop offset="0.0589" stop-color="#F2D2D1"/>
<stop offset="0.1562" stop-color="#DD8E8A"/>
<stop offset="0.2263" stop-color="#D0645E"/>
<stop offset="0.2617" stop-color="#CB534D"/>
<stop offset="0.6615" stop-color="#9B4222"/>
<stop offset="0.7268" stop-color="#933B1F"/>
<stop offset="0.828" stop-color="#7D2B15"/>
<stop offset="0.9518" stop-color="#5A0F07"/>
<stop offset="1" stop-color="#4A0300"/>
</linearGradient>
<linearGradient id="paint10_linear_758_8760" x1="7.34748" y1="6.13831" x2="9.53782" y2="1.27089" gradientUnits="userSpaceOnUse">
<stop stop-color="white"/>
<stop offset="0.0589" stop-color="#F2DCD1"/>
<stop offset="0.1562" stop-color="#DDA78A"/>
<stop offset="0.2263" stop-color="#D0865E"/>
<stop offset="0.2617" stop-color="#CB794D"/>
<stop offset="0.6615" stop-color="#9B4222"/>
<stop offset="0.7268" stop-color="#933B1F"/>
<stop offset="0.828" stop-color="#7D2B15"/>
<stop offset="0.9518" stop-color="#5A0F07"/>
<stop offset="1" stop-color="#4A0300"/>
</linearGradient>
<linearGradient id="paint11_linear_758_8760" x1="6.4351" y1="7.74387" x2="3.47998" y2="12.1909" gradientUnits="userSpaceOnUse">
<stop stop-color="white"/>
<stop offset="0.0589" stop-color="#F2DCD1"/>
<stop offset="0.1562" stop-color="#DD8E8A"/>
<stop offset="0.2263" stop-color="#D0645E"/>
<stop offset="0.2617" stop-color="#CB534D"/>
<stop offset="0.6615" stop-color="#9B4222"/>
<stop offset="0.7268" stop-color="#933B1F"/>
<stop offset="0.828" stop-color="#7D2B15"/>
<stop offset="0.9518" stop-color="#5A0F07"/>
<stop offset="1" stop-color="#4A0300"/>
</linearGradient>
<linearGradient id="paint12_linear_758_8760" x1="6.39203" y1="7.94432" x2="3.70387" y2="11.1255" gradientUnits="userSpaceOnUse">
<stop stop-color="white"/>
<stop offset="0.0589" stop-color="#F2D2D1"/>
<stop offset="0.1562" stop-color="#DD8E8A"/>
<stop offset="0.2263" stop-color="#D0645E"/>
<stop offset="0.2617" stop-color="#CB534D"/>
<stop offset="0.6615" stop-color="#9B4222"/>
<stop offset="0.7268" stop-color="#933B1F"/>
<stop offset="0.828" stop-color="#7D2B15"/>
<stop offset="0.9518" stop-color="#5A0F07"/>
<stop offset="1" stop-color="#4A0300"/>
</linearGradient>
</defs>
</svg>
