<svg width="24" height="24" viewBox="0 0 24 24" fill="none" xmlns="http://www.w3.org/2000/svg">
<path d="M22.125 12C22.125 9.99762 21.5313 8.04014 20.4188 6.37514C19.3064 4.71014 17.7252 3.41239 15.8753 2.64597C14.0253 1.87955 11.9896 1.6789 10.0256 2.06937C8.06164 2.45984 6.25753 3.42391 4.84142 4.83967C3.42531 6.25544 2.46081 8.05931 2.06985 10.0232C1.6789 11.9871 1.87906 14.0228 2.64502 15.873C3.41099 17.7231 4.70836 19.3046 6.37309 20.4175C8.03782 21.5303 9.99514 22.1245 11.9976 22.125L12 22.1251L12.0024 22.125C14.6864 22.1213 17.2593 21.0534 19.157 19.1553C21.0546 17.2572 22.122 14.684 22.125 12ZM13.125 19.7934V14.6251H15C15.2984 14.6251 15.5845 14.5066 15.7955 14.2956C16.0065 14.0847 16.125 13.7985 16.125 13.5001C16.125 13.2018 16.0065 12.9156 15.7955 12.7046C15.5845 12.4937 15.2984 12.3751 15 12.3751H13.125V10.5001C13.1253 10.2019 13.244 9.91593 13.4549 9.70503C13.6658 9.49412 13.9517 9.37548 14.25 9.37514H15.75C16.0484 9.37514 16.3345 9.25662 16.5455 9.04564C16.7565 8.83466 16.875 8.54851 16.875 8.25014C16.875 7.95178 16.7565 7.66563 16.5455 7.45465C16.3345 7.24367 16.0484 7.12514 15.75 7.12514H14.25C13.3552 7.12615 12.4973 7.48205 11.8646 8.11477C11.2319 8.74749 10.876 9.60535 10.875 10.5001V12.3751H9C8.70164 12.3751 8.41549 12.4937 8.20451 12.7046C7.99353 12.9156 7.875 13.2018 7.875 13.5001C7.875 13.7985 7.99353 14.0847 8.20451 14.2956C8.41549 14.5066 8.70164 14.6251 9 14.6251H10.875V19.7934C8.90447 19.509 7.1148 18.4887 5.86617 16.938C4.61755 15.3872 4.00265 13.4211 4.14522 11.4352C4.2878 9.44936 5.17727 7.59123 6.63463 6.23475C8.09198 4.87828 10.009 4.12416 12 4.12416C13.991 4.12416 15.908 4.87828 17.3654 6.23475C18.8227 7.59123 19.7122 9.44936 19.8548 11.4352C19.9974 13.4211 19.3825 15.3872 18.1338 16.938C16.8852 18.4887 15.0955 19.509 13.125 19.7934Z" fill="#323135"/>
</svg>
