<svg width="245" height="200" viewBox="0 0 245 200" fill="none" xmlns="http://www.w3.org/2000/svg">
<path d="M184.345 176.543C184.345 176.543 187.913 181.901 199.277 189.42C200.127 189.975 201.019 190.549 201.959 191.13C205.527 193.346 209.719 195.704 214.672 198.148L215.862 166.667C215.862 166.667 231.323 167.901 245 161.728C243.424 160.914 236.633 157.117 226.869 149.259C225.995 148.562 225.085 147.821 224.169 147.049C219.852 143.444 215.041 139.105 209.897 133.951C202.185 147.531 184.345 176.543 184.345 176.543Z" fill="url(#paint0_linear_358_8019)"/>
<path d="M60.6553 174.691C60.6553 174.691 57.0874 180.049 45.7234 187.568C44.8731 188.123 43.9811 188.698 43.0415 189.278C39.4735 191.494 35.3109 193.852 30.3277 196.296L29.1383 164.815C29.1383 164.815 13.6772 166.049 0 159.877C1.57585 159.062 8.36687 155.265 18.1312 147.407C19.0053 146.71 19.9152 145.969 20.8309 145.198C25.1482 141.593 29.959 137.253 35.1028 132.099C42.8155 145.679 60.6553 174.691 60.6553 174.691Z" fill="url(#paint1_linear_358_8019)"/>
<path fill-rule="evenodd" clip-rule="evenodd" d="M124.284 200C177.488 200 220.619 155.228 220.619 100C220.619 44.7715 177.488 0 124.284 0C71.0796 0 27.949 44.7715 27.949 100C27.949 155.228 71.0796 200 124.284 200ZM124.284 175.926C164.68 175.926 197.427 141.933 197.427 100C197.427 58.0673 164.68 24.0741 124.284 24.0741C83.8882 24.0741 51.1409 58.0673 51.1409 100C51.1409 141.933 83.8882 175.926 124.284 175.926Z" fill="#E36302"/>
<mask id="mask0_358_8019" style="mask-type:alpha" maskUnits="userSpaceOnUse" x="27" y="0" width="194" height="200">
<path fill-rule="evenodd" clip-rule="evenodd" d="M124.284 200C177.488 200 220.619 155.228 220.619 100C220.619 44.7715 177.488 0 124.284 0C71.0796 0 27.949 44.7715 27.949 100C27.949 155.228 71.0796 200 124.284 200ZM124.284 175.926C164.68 175.926 197.427 141.933 197.427 100C197.427 58.0673 164.68 24.0741 124.284 24.0741C83.8882 24.0741 51.1409 58.0673 51.1409 100C51.1409 141.933 83.8882 175.926 124.284 175.926Z" fill="#6C7E92"/>
</mask>
<g mask="url(#mask0_358_8019)">
<g filter="url(#filter0_f_358_8019)">
<ellipse cx="34.7917" cy="65.7988" rx="34.7917" ry="65.7988" transform="matrix(0.723934 0.689869 -0.662472 0.749087 105.427 -44.9171)" fill="#FBEB93"/>
</g>
<g filter="url(#filter1_f_358_8019)">
<ellipse cx="22.2147" cy="63.6777" rx="22.2147" ry="63.6777" transform="matrix(-0.857752 0.514064 -0.486067 -0.873922 232.027 71.7924)" fill="#F9C94D"/>
</g>
<g filter="url(#filter2_f_358_8019)">
<ellipse cx="22.4249" cy="45.4558" rx="22.4249" ry="45.4558" transform="matrix(-0.693786 -0.720181 0.693786 -0.720181 161.941 216.909)" fill="#FEDB78"/>
</g>
<g filter="url(#filter3_f_358_8019)">
<ellipse cx="22.4249" cy="45.4558" rx="22.4249" ry="45.4558" transform="matrix(0.693786 -0.720181 0.693786 0.720181 19.0291 142.794)" fill="#FBE515"/>
</g>
</g>
<ellipse cx="124.284" cy="100" rx="73.1432" ry="75.9259" fill="url(#paint2_linear_358_8019)"/>
<path fill-rule="evenodd" clip-rule="evenodd" d="M124.284 181.481C167.636 181.481 202.779 145.001 202.779 100C202.779 54.999 167.636 18.5185 124.284 18.5185C80.9323 18.5185 45.7888 54.999 45.7888 100C45.7888 145.001 80.9323 181.481 124.284 181.481ZM124.284 175.926C164.68 175.926 197.427 141.933 197.427 100C197.427 58.0673 164.68 24.0741 124.284 24.0741C83.8882 24.0741 51.1409 58.0673 51.1409 100C51.1409 141.933 83.8882 175.926 124.284 175.926Z" fill="url(#paint3_linear_358_8019)"/>
<path d="M142.713 136.233C141.713 136.232 140.728 135.975 139.846 135.486L124.813 127.288C124.614 127.179 124.391 127.122 124.165 127.122C123.939 127.122 123.717 127.179 123.517 127.288L108.484 135.486C107.602 135.975 106.618 136.232 105.618 136.233C104.721 136.23 103.836 136.024 103.024 135.63C102.212 135.236 101.492 134.663 100.915 133.951C100.338 133.239 99.9167 132.405 99.6814 131.507C99.4461 130.609 99.402 129.669 99.5523 128.751L102.425 111.381C102.463 111.149 102.446 110.911 102.376 110.687C102.305 110.463 102.183 110.261 102.02 110.097L89.8653 97.7944C89.0442 96.9617 88.4635 95.9074 88.1888 94.7504C87.9141 93.5934 87.9562 92.3798 88.3105 91.2463C88.6648 90.1129 89.3171 89.1047 90.1939 88.3356C91.0707 87.5664 92.137 87.0668 93.2727 86.8932L110.078 84.3623C110.302 84.3273 110.515 84.2366 110.698 84.098C110.881 83.9593 111.03 83.7769 111.13 83.566L118.647 67.7574C119.155 66.6888 119.941 65.7891 120.917 65.16C121.892 64.5309 123.017 64.1975 124.165 64.1975C125.313 64.1975 126.439 64.5309 127.414 65.16C128.389 65.7891 129.175 66.6888 129.684 67.7574L137.2 83.566C137.301 83.7769 137.449 83.9593 137.633 84.098C137.816 84.2366 138.029 84.3273 138.253 84.3623L155.058 86.8932C156.194 87.0668 157.26 87.5664 158.137 88.3356C159.014 89.1047 159.666 90.1129 160.02 91.2463C160.374 92.3798 160.417 93.5934 160.142 94.7504C159.867 95.9074 159.286 96.9617 158.465 97.7944L146.31 110.097C146.147 110.261 146.025 110.463 145.955 110.687C145.884 110.911 145.868 111.149 145.906 111.381L148.778 128.751C148.929 129.669 148.885 130.609 148.649 131.507C148.414 132.405 147.993 133.239 147.416 133.951C146.838 134.663 146.119 135.236 145.307 135.63C144.494 136.024 143.609 136.23 142.713 136.233Z" fill="#470068"/>
<path d="M127.553 68.8541L135.069 84.6628C135.341 85.2315 135.742 85.7234 136.237 86.0964C136.732 86.4694 137.306 86.7125 137.912 86.8048L154.717 89.3418C155.414 89.447 156.069 89.7525 156.607 90.2239C157.146 90.6953 157.547 91.3137 157.765 92.0091C157.982 92.7046 158.008 93.4495 157.84 94.1595C157.671 94.8695 157.314 95.5164 156.81 96.027L144.649 108.329C144.211 108.773 143.884 109.321 143.696 109.925C143.507 110.53 143.463 111.173 143.567 111.799L146.433 129.175C146.554 129.896 146.477 130.638 146.212 131.316C145.947 131.994 145.505 132.581 144.934 133.011C144.364 133.441 143.689 133.697 142.986 133.749C142.283 133.801 141.579 133.647 140.956 133.305L125.953 125.107C125.411 124.809 124.806 124.654 124.193 124.654C123.579 124.654 122.975 124.809 122.433 125.107L107.382 133.305C106.759 133.647 106.055 133.801 105.352 133.749C104.649 133.697 103.974 133.441 103.404 133.011C102.833 132.581 102.391 131.994 102.126 131.316C101.861 130.638 101.784 129.896 101.905 129.175L104.771 111.799C104.875 111.173 104.831 110.53 104.642 109.925C104.454 109.321 104.127 108.773 103.689 108.329L91.5281 96.027C91.0237 95.5164 90.667 94.8695 90.4983 94.1595C90.3296 93.4495 90.3556 92.7046 90.5733 92.0091C90.7911 91.3137 91.192 90.6953 91.7306 90.2239C92.2692 89.7525 92.9241 89.447 93.6213 89.3418L110.426 86.8048C111.032 86.7125 111.606 86.4694 112.101 86.0964C112.596 85.7234 112.997 85.2315 113.269 84.6628L120.785 68.8541C121.096 68.1978 121.578 67.6449 122.176 67.2583C122.774 66.8716 123.464 66.6667 124.169 66.6667C124.874 66.6667 125.564 66.8716 126.162 67.2583C126.76 67.6449 127.242 68.1978 127.553 68.8541Z" fill="url(#paint4_linear_358_8019)"/>
<path d="M194.927 100C194.927 140.641 163.212 173.426 124.284 173.426C85.3561 173.426 53.6409 140.641 53.6409 100C53.6409 59.3592 85.3561 26.5741 124.284 26.5741C163.212 26.5741 194.927 59.3592 194.927 100Z" stroke="url(#paint5_linear_358_8019)" stroke-width="5"/>
<path opacity="0.15" d="M199.806 37.963C195.279 43.5866 191.161 47.929 186.138 52.9776C185.766 53.361 185.394 53.7444 185.022 54.1279C184.774 54.3835 184.588 54.5752 184.34 54.8308C183.41 55.7255 182.479 56.6841 181.487 57.5788C181.115 57.8983 180.805 58.2178 180.433 58.6012C180.185 58.793 179.937 59.0486 179.751 59.2403C179.441 59.5598 179.131 59.8154 178.821 60.0711C145.831 90.1705 103.912 108.511 59.6364 111.834C59.2023 111.834 58.8302 111.898 58.3962 111.898C58.0861 111.898 57.7761 111.962 57.466 111.962C56.9699 111.962 56.5359 112.026 56.0398 112.026C54.4275 112.09 52.8152 112.218 51.2029 112.218C50.7069 112.218 50.1488 112.282 49.6527 112.282C48.4125 112.346 47.1723 112.346 45.9941 112.346C40.2271 112.346 34.4601 112.154 28.6311 111.643C28.197 107.872 27.949 103.974 27.949 100.076C27.949 44.7977 71.4184 0 124.996 0C149.118 0 170.624 9.60968 187.615 24.6914C192.018 28.5896 196.085 33.2979 199.806 37.963Z" fill="url(#paint6_linear_358_8019)"/>
<defs>
<filter id="filter0_f_358_8019" x="-22.3274" y="-85.4611" width="218.703" height="227.67" filterUnits="userSpaceOnUse" color-interpolation-filters="sRGB">
<feFlood flood-opacity="0" result="BackgroundImageFix"/>
<feBlend mode="normal" in="SourceGraphic" in2="BackgroundImageFix" result="shape"/>
<feGaussianBlur stdDeviation="29.5" result="effect1_foregroundBlur_358_8019"/>
</filter>
<filter id="filter1_f_358_8019" x="86.6692" y="-88.2573" width="190.703" height="231.64" filterUnits="userSpaceOnUse" color-interpolation-filters="sRGB">
<feFlood flood-opacity="0" result="BackgroundImageFix"/>
<feBlend mode="normal" in="SourceGraphic" in2="BackgroundImageFix" result="shape"/>
<feGaussianBlur stdDeviation="29.5" result="effect1_foregroundBlur_358_8019"/>
</filter>
<filter id="filter2_f_358_8019" x="83.7466" y="72.5107" width="188.347" height="191.023" filterUnits="userSpaceOnUse" color-interpolation-filters="sRGB">
<feFlood flood-opacity="0" result="BackgroundImageFix"/>
<feBlend mode="normal" in="SourceGraphic" in2="BackgroundImageFix" result="shape"/>
<feGaussianBlur stdDeviation="29.5" result="effect1_foregroundBlur_358_8019"/>
</filter>
<filter id="filter3_f_358_8019" x="-28.0496" y="63.8687" width="188.347" height="191.023" filterUnits="userSpaceOnUse" color-interpolation-filters="sRGB">
<feFlood flood-opacity="0" result="BackgroundImageFix"/>
<feBlend mode="normal" in="SourceGraphic" in2="BackgroundImageFix" result="shape"/>
<feGaussianBlur stdDeviation="29.5" result="effect1_foregroundBlur_358_8019"/>
</filter>
<linearGradient id="paint0_linear_358_8019" x1="231.698" y1="181.403" x2="194.729" y2="156.442" gradientUnits="userSpaceOnUse">
<stop stop-color="#FC0106"/>
<stop offset="0.5559" stop-color="#E82626"/>
<stop offset="0.6787" stop-color="#B90004"/>
<stop offset="1" stop-color="#790400"/>
</linearGradient>
<linearGradient id="paint1_linear_358_8019" x1="20.8131" y1="176.235" x2="45.6524" y2="156.183" gradientUnits="userSpaceOnUse">
<stop stop-color="#FC0106"/>
<stop offset="0.493927" stop-color="#E82626"/>
<stop offset="0.716768" stop-color="#B90004"/>
<stop offset="1" stop-color="#790400"/>
</linearGradient>
<linearGradient id="paint2_linear_358_8019" x1="124.284" y1="24.0741" x2="124.284" y2="175.926" gradientUnits="userSpaceOnUse">
<stop stop-color="#BD49D0"/>
<stop offset="0.5" stop-color="#9703B9"/>
<stop offset="1" stop-color="#852878"/>
</linearGradient>
<linearGradient id="paint3_linear_358_8019" x1="124.284" y1="17.6634" x2="124.284" y2="181.399" gradientUnits="userSpaceOnUse">
<stop stop-color="#FFEE02"/>
<stop offset="0.5" stop-color="#D27003"/>
<stop offset="1" stop-color="#FBA400"/>
</linearGradient>
<linearGradient id="paint4_linear_358_8019" x1="124.179" y1="67.3288" x2="124.179" y2="125.69" gradientUnits="userSpaceOnUse">
<stop offset="0.0820804" stop-color="#F7E547"/>
<stop offset="0.2263" stop-color="#FEFCAF"/>
<stop offset="0.3883" stop-color="#F8DC20"/>
<stop offset="0.5895" stop-color="#E67A0B"/>
<stop offset="1" stop-color="#F8DC20"/>
</linearGradient>
<linearGradient id="paint5_linear_358_8019" x1="124.284" y1="24.0741" x2="124.284" y2="175.926" gradientUnits="userSpaceOnUse">
<stop stop-color="#AB2EBE"/>
<stop offset="1" stop-color="#340354"/>
</linearGradient>
<linearGradient id="paint6_linear_358_8019" x1="73.359" y1="15.4161" x2="130.502" y2="92.4678" gradientUnits="userSpaceOnUse">
<stop offset="0.5084" stop-color="white" stop-opacity="0"/>
<stop offset="1" stop-color="white"/>
</linearGradient>
</defs>
</svg>
