<svg width="393" height="539" viewBox="0 0 393 539" fill="none" xmlns="http://www.w3.org/2000/svg">
<path d="M196.5 270.257L392.018 211.904L393 211.579V183.742L387.026 186.339L196.5 270.257L48.3783 85.2161L0 24.8344V0H18.0387L61.9761 66.5497L196.5 270.257ZM196.5 270.257L88.2678 38.8748L70.0719 0H95.3025L104.931 25.646L196.5 270.257ZM196.5 270.257L0 283.242V257.271L196.5 270.257L205.932 0H187.029L196.5 270.257L393 257.271V283.242L196.5 270.257L344.582 85.2161L393 24.8344V0H374.961L330.985 66.5497L196.5 270.257ZM196.5 270.257L374.372 144.299L393 131.152V96.4159L364.743 121.413L196.5 270.257L1.0218 211.904L0 211.579V183.742L5.9736 186.339L196.5 270.257L288.069 25.646L297.698 0H322.928L304.771 38.8748L196.5 270.257ZM196.5 270.257L18.6282 144.299L0 131.07V96.3347L28.2567 121.331L196.5 270.257L257.494 8.19697L259.419 0H239.141L238.944 1.37969L196.5 270.257ZM196.5 270.257L135.506 8.19697L133.581 0H153.859L154.056 1.37969L196.5 270.257Z" fill="url(#paint0_linear_752_7490)"/>
<path d="M196.5 268.743L392.018 327.096L393 327.421V355.258L387.026 352.661L196.5 268.743L48.3783 453.784L0 514.166V539H18.0387L61.9761 472.45L196.5 268.743ZM196.5 268.743L88.2678 500.125L70.0719 539H95.3025L104.931 513.354L196.5 268.743ZM196.5 268.743L0 255.758V281.729L196.5 268.743L205.932 539H187.029L196.5 268.743L393 281.729V255.758L196.5 268.743L344.582 453.784L393 514.166V539H374.961L330.985 472.45L196.5 268.743ZM196.5 268.743L374.372 394.701L393 407.848V442.584L364.743 417.587L196.5 268.743L1.0218 327.096L0 327.421V355.258L5.9736 352.661L196.5 268.743L288.069 513.354L297.698 539H322.928L304.771 500.125L196.5 268.743ZM196.5 268.743L18.6282 394.701L0 407.93V442.665L28.2567 417.669L196.5 268.743L257.494 530.803L259.419 539H239.141L238.944 537.62L196.5 268.743ZM196.5 268.743L135.506 530.803L133.581 539H153.859L154.056 537.62L196.5 268.743Z" fill="url(#paint1_linear_752_7490)"/>
<defs>
<linearGradient id="paint0_linear_752_7490" x1="196.5" y1="0" x2="196.5" y2="283.242" gradientUnits="userSpaceOnUse">
<stop stop-color="#9C84FC" stop-opacity="0.4"/>
<stop offset="1" stop-color="#D50DD5" stop-opacity="0.3"/>
</linearGradient>
<linearGradient id="paint1_linear_752_7490" x1="196.5" y1="539" x2="196.5" y2="255.758" gradientUnits="userSpaceOnUse">
<stop stop-color="#9C84FC" stop-opacity="0.4"/>
<stop offset="1" stop-color="#D50DD5" stop-opacity="0.3"/>
</linearGradient>
</defs>
</svg>
