<svg width="31" height="30" viewBox="0 0 31 30" fill="none" xmlns="http://www.w3.org/2000/svg">
	<g filter="url(#filter0_d_540_4906)">
		<path d="M21.7 28C19.1167 28 16.9208 27.1833 15.1125 25.55C13.3042 23.9167 12.4 21.9333 12.4 19.6C12.4 17.2667 13.3042 15.2833 15.1125 13.65C16.9208 12.0167 19.1167 11.2 21.7 11.2C24.2833 11.2 26.4792 12.0167 28.2875 13.65C30.0958 15.2833 31 17.2667 31 19.6C31 21.9333 30.0958 23.9167 28.2875 25.55C26.4792 27.1833 24.2833 28 21.7 28ZM21.7 25.2C23.405 25.2 24.8646 24.6517 26.0788 23.555C27.2929 22.4583 27.9 21.14 27.9 19.6C27.9 18.06 27.2929 16.7417 26.0788 15.645C24.8646 14.5483 23.405 14 21.7 14C19.995 14 18.5354 14.5483 17.3212 15.645C16.1071 16.7417 15.5 18.06 15.5 19.6C15.5 21.14 16.1071 22.4583 17.3212 23.555C18.5354 24.6517 19.995 25.2 21.7 25.2ZM3.1 25.2C2.2475 25.2 1.51797 24.9261 0.9114 24.3782C0.304833 23.8303 0.00103333 23.1709 0 22.4V11.76C0 11.5733 0.0196335 11.3867 0.0589002 11.2C0.0981668 11.0133 0.156033 10.8267 0.2325 10.64L3.3325 4.2H3.1C2.66083 4.2 2.29297 4.0656 1.9964 3.7968C1.69983 3.528 1.55103 3.19573 1.55 2.8V1.4C1.55 1.00333 1.6988 0.671067 1.9964 0.4032C2.294 0.135333 2.66187 0.000933333 3.1 0H13.95C14.3892 0 14.7576 0.1344 15.0552 0.4032C15.3527 0.672 15.501 1.00427 15.5 1.4V2.8C15.5 3.19667 15.3512 3.5294 15.0536 3.7982C14.756 4.067 14.3881 4.20093 13.95 4.2H13.7175L16.275 9.52C15.7842 9.75333 15.3192 9.99833 14.88 10.255C14.4408 10.5117 14.0275 10.8033 13.64 11.13L10.385 4.2H6.665L3.1 11.76V22.4H9.6875C9.81667 22.89 9.99078 23.3744 10.2098 23.8532C10.4289 24.332 10.694 24.7809 11.005 25.2H3.1ZM21.7 9.8C20.615 9.8 19.6979 9.46167 18.9487 8.785C18.1996 8.10833 17.825 7.28 17.825 6.3C17.825 5.32 18.1996 4.49167 18.9487 3.815C19.6979 3.13833 20.615 2.8 21.7 2.8V9.8ZM21.7 9.8C21.7 8.82 22.0746 7.99167 22.8237 7.315C23.5729 6.63833 24.49 6.3 25.575 6.3C26.66 6.3 27.5771 6.63833 28.3262 7.315C29.0754 7.99167 29.45 8.82 29.45 9.8H21.7Z" fill="white" />
	</g>
	<defs>
		<filter id="filter0_d_540_4906" x="0" y="0" width="31" height="30" filterUnits="userSpaceOnUse" color-interpolation-filters="sRGB">
			<feFlood flood-opacity="0" result="BackgroundImageFix" />
			<feColorMatrix in="SourceAlpha" type="matrix" values="0 0 0 0 0 0 0 0 0 0 0 0 0 0 0 0 0 0 127 0" result="hardAlpha" />
			<feOffset dy="2" />
			<feComposite in2="hardAlpha" operator="out" />
			<feColorMatrix type="matrix" values="0 0 0 0 0 0 0 0 0 0 0 0 0 0 0 0 0 0 0.15 0" />
			<feBlend mode="normal" in2="BackgroundImageFix" result="effect1_dropShadow_540_4906" />
			<feBlend mode="normal" in="SourceGraphic" in2="effect1_dropShadow_540_4906" result="shape" />
		</filter>
	</defs>
</svg>
