<svg width="25" height="30" viewBox="0 0 25 30" fill="none" xmlns="http://www.w3.org/2000/svg">
<g filter="url(#filter0_d_540_4912)">
<path d="M12.5 16C10.6582 16 8.89187 15.2976 7.58954 14.0474C6.2872 12.7971 5.55556 11.1014 5.55556 9.33333H8.33333C8.33333 10.3942 8.77232 11.4116 9.55372 12.1618C10.3351 12.9119 11.3949 13.3333 12.5 13.3333C13.6051 13.3333 14.6649 12.9119 15.4463 12.1618C16.2277 11.4116 16.6667 10.3942 16.6667 9.33333H19.4444C19.4444 11.1014 18.7128 12.7971 17.4105 14.0474C16.1081 15.2976 14.3418 16 12.5 16ZM12.5 2.66667C13.6051 2.66667 14.6649 3.08809 15.4463 3.83824C16.2277 4.58839 16.6667 5.6058 16.6667 6.66667H8.33333C8.33333 5.6058 8.77232 4.58839 9.55372 3.83824C10.3351 3.08809 11.3949 2.66667 12.5 2.66667ZM22.2222 6.66667H19.4444C19.4444 5.79119 19.2648 4.92428 18.9158 4.11544C18.5668 3.30661 18.0553 2.57168 17.4105 1.95262C16.7656 1.33356 16.0001 0.842501 15.1575 0.50747C14.315 0.172438 13.412 0 12.5 0C10.6582 0 8.89187 0.702379 7.58954 1.95262C6.2872 3.20286 5.55556 4.89856 5.55556 6.66667H2.77778C1.23611 6.66667 0 7.85333 0 9.33333V25.3333C0 26.0406 0.292658 26.7189 0.813592 27.219C1.33453 27.719 2.04107 28 2.77778 28H22.2222C22.9589 28 23.6655 27.719 24.1864 27.219C24.7073 26.7189 25 26.0406 25 25.3333V9.33333C25 8.62609 24.7073 7.94781 24.1864 7.44772C23.6655 6.94762 22.9589 6.66667 22.2222 6.66667Z" fill="white"/>
</g>
<defs>
<filter id="filter0_d_540_4912" x="0" y="0" width="25" height="30" filterUnits="userSpaceOnUse" color-interpolation-filters="sRGB">
<feFlood flood-opacity="0" result="BackgroundImageFix"/>
<feColorMatrix in="SourceAlpha" type="matrix" values="0 0 0 0 0 0 0 0 0 0 0 0 0 0 0 0 0 0 127 0" result="hardAlpha"/>
<feOffset dy="2"/>
<feComposite in2="hardAlpha" operator="out"/>
<feColorMatrix type="matrix" values="0 0 0 0 0 0 0 0 0 0 0 0 0 0 0 0 0 0 0.15 0"/>
<feBlend mode="normal" in2="BackgroundImageFix" result="effect1_dropShadow_540_4912"/>
<feBlend mode="normal" in="SourceGraphic" in2="effect1_dropShadow_540_4912" result="shape"/>
</filter>
</defs>
</svg>
