<svg width="24" height="24" viewBox="0 0 24 24" fill="none" xmlns="http://www.w3.org/2000/svg">
<path fill-rule="evenodd" clip-rule="evenodd" d="M6.66691 7.24515C5.00833 8.72962 4 10.656 4 13C4 17.4182 7.58172 21 12 21C16.4183 21 20 17.4182 20 13C20 10.656 18.9917 8.72962 17.3331 7.24515L18.6669 5.75488C20.6908 7.56634 22 10.013 22 13C22 18.5228 17.5228 23 12 23C6.47715 23 2 18.5228 2 13C2 10.013 3.30917 7.56634 5.33309 5.75488L6.66691 7.24515Z" fill="#DE1135"/>
<path fill-rule="evenodd" clip-rule="evenodd" d="M11.9996 1L15.7067 4.7074L14.2925 6.12156L12.9996 4.8286L12.9996 12.4143H10.9996L10.9996 4.8286L9.70674 6.12156L8.29248 4.7074L11.9996 1Z" fill="#DE1135"/>
</svg>
