<svg width="21" height="21" viewBox="0 0 21 21" fill="none" xmlns="http://www.w3.org/2000/svg">
<path d="M19.1625 16.4091L18.9642 16.2341C18.4017 15.7327 17.9092 15.1578 17.5 14.525C17.0529 13.6516 16.7851 12.6976 16.7125 11.7192V8.83748C16.7164 7.30076 16.159 5.81551 15.145 4.6608C14.131 3.50609 12.7302 2.7614 11.2059 2.56665V1.81415C11.2059 1.60761 11.1238 1.40953 10.9778 1.26349C10.8317 1.11745 10.6337 1.0354 10.4271 1.0354C10.2206 1.0354 10.0225 1.11745 9.87646 1.26349C9.73041 1.40953 9.64837 1.60761 9.64837 1.81415V2.57832C8.13768 2.78711 6.75385 3.5363 5.75317 4.68713C4.7525 5.83796 4.20279 7.31244 4.20586 8.83748V11.7192C4.13327 12.6976 3.86551 13.6516 3.41836 14.525C3.01638 15.1564 2.53181 15.7312 1.97753 16.2341L1.7792 16.4091V18.0541H19.1625V16.4091Z" fill="white"/>
<path d="M8.93663 18.6667C8.98778 19.0364 9.17101 19.3752 9.45246 19.6204C9.73392 19.8656 10.0946 20.0007 10.4679 20.0007C10.8412 20.0007 11.2018 19.8656 11.4833 19.6204C11.7648 19.3752 11.948 19.0364 11.9991 18.6667H8.93663Z" fill="white"/>
</svg>
