<svg width="35" height="32" viewBox="0 0 35 32" fill="none" xmlns="http://www.w3.org/2000/svg">
	<path d="M17.3411 10.6667V16.6667L22.9232 18.6667" stroke="white" stroke-width="2" stroke-linecap="round" stroke-linejoin="round" />
	<path d="M6.13037 16C6.13037 13.453 7.05972 10.9792 8.76866 9.00549C10.4785 7.03078 12.863 5.67988 15.516 5.19635C18.1693 4.71276 20.9143 5.1292 23.2758 6.36963C25.6367 7.60966 27.4605 9.59176 28.4441 11.9653C29.4272 14.3378 29.5132 16.9609 28.6884 19.3862C27.8633 21.8126 26.1746 23.8986 23.9015 25.2768C21.6277 26.6556 18.9162 27.2361 16.2358 26.9126C13.5556 26.5891 11.0854 25.3834 9.24765 23.5136" stroke="white" stroke-width="2" stroke-linecap="round" />
	<path d="M8.96777 14.6667L6.17671 17.3334L3.38565 14.6667" fill="white" />
	<path d="M8.96777 14.6667L6.17671 17.3334L3.38565 14.6667L8.96777 14.6667Z" stroke="white" stroke-width="2" stroke-linecap="round" stroke-linejoin="round" />
</svg>
