<svg width="245" height="200" viewBox="0 0 245 200" fill="none" xmlns="http://www.w3.org/2000/svg">
<path d="M184.345 176.543C184.345 176.543 187.913 181.901 199.277 189.42C200.127 189.975 201.019 190.549 201.959 191.13C205.527 193.346 209.719 195.704 214.672 198.148L215.862 166.667C215.862 166.667 231.323 167.901 245 161.728C243.424 160.914 236.633 157.117 226.869 149.259C225.995 148.562 225.085 147.821 224.169 147.049C219.852 143.444 215.041 139.105 209.897 133.951C202.185 147.531 184.345 176.543 184.345 176.543Z" fill="url(#paint0_linear_358_7966)"/>
<path d="M60.6553 174.691C60.6553 174.691 57.0874 180.049 45.7234 187.568C44.873 188.123 43.9811 188.698 43.0415 189.278C39.4735 191.494 35.3109 193.852 30.3277 196.296L29.1383 164.815C29.1383 164.815 13.6772 166.049 0 159.877C1.57585 159.062 8.36687 155.265 18.1312 147.407C19.0053 146.71 19.9152 145.969 20.8309 145.198C25.1482 141.593 29.959 137.253 35.1028 132.099C42.8155 145.679 60.6553 174.691 60.6553 174.691Z" fill="url(#paint1_linear_358_7966)"/>
<path d="M45.7236 187.568C44.8732 188.123 43.9812 188.698 43.0417 189.278C40.9187 182.123 32.4567 166.321 29.1385 161.728C26.8033 158.433 24.2182 155.337 21.4079 152.469C20.3078 151.327 18.9817 149.012 18.1313 147.407C19.0055 146.71 19.9153 145.969 20.8311 145.198C21.9134 146.975 23.5546 149.636 24.9937 151.852C27.3724 155.556 42.2389 175.309 44.0228 179.012C45.1943 181.469 45.5868 185.278 45.7236 187.568Z" fill="#9925E8"/>
<path fill-rule="evenodd" clip-rule="evenodd" d="M122.5 200C175.704 200 218.835 155.228 218.835 100C218.835 44.7715 175.704 0 122.5 0C69.2957 0 26.165 44.7715 26.165 100C26.165 155.228 69.2957 200 122.5 200ZM122.5 175.926C162.896 175.926 195.643 141.933 195.643 100C195.643 58.0673 162.896 24.0741 122.5 24.0741C82.1043 24.0741 49.3569 58.0673 49.3569 100C49.3569 141.933 82.1043 175.926 122.5 175.926Z" fill="#6C7E92"/>
<mask id="mask0_358_7966" style="mask-type:alpha" maskUnits="userSpaceOnUse" x="26" y="0" width="193" height="200">
<path fill-rule="evenodd" clip-rule="evenodd" d="M122.5 200C175.704 200 218.835 155.228 218.835 100C218.835 44.7715 175.704 0 122.5 0C69.2957 0 26.165 44.7715 26.165 100C26.165 155.228 69.2957 200 122.5 200ZM122.5 175.926C162.896 175.926 195.643 141.933 195.643 100C195.643 58.0673 162.896 24.0741 122.5 24.0741C82.1043 24.0741 49.3569 58.0673 49.3569 100C49.3569 141.933 82.1043 175.926 122.5 175.926Z" fill="#6C7E92"/>
</mask>
<g mask="url(#mask0_358_7966)">
<g filter="url(#filter0_f_358_7966)">
<ellipse cx="22.3891" cy="45.5281" rx="22.3891" ry="45.5281" transform="matrix(0.723934 0.689869 -0.662472 0.749087 77.5674 -15.4321)" fill="#F0F2F7"/>
</g>
<g filter="url(#filter1_f_358_7966)">
<ellipse cx="22.2146" cy="45.878" rx="22.2146" ry="45.878" transform="matrix(-0.857752 0.514064 -0.486067 -0.873922 226.022 62.792)" fill="#F0F2F7"/>
</g>
<g filter="url(#filter2_f_358_7966)">
<ellipse cx="22.4249" cy="45.4558" rx="22.4249" ry="45.4558" transform="matrix(-0.693786 -0.720181 0.693786 -0.720181 160.157 216.909)" fill="#F0F2F7"/>
</g>
<g filter="url(#filter3_f_358_7966)">
<ellipse cx="22.4249" cy="45.4558" rx="22.4249" ry="45.4558" transform="matrix(0.693786 -0.720181 0.693786 0.720181 17.2451 142.794)" fill="#889BAF"/>
</g>
</g>
<ellipse cx="122.5" cy="100" rx="73.1432" ry="75.9259" fill="url(#paint2_linear_358_7966)"/>
<path d="M193.143 100C193.143 140.641 161.428 173.426 122.5 173.426C83.5721 173.426 51.8569 140.641 51.8569 100C51.8569 59.3592 83.5721 26.5741 122.5 26.5741C161.428 26.5741 193.143 59.3592 193.143 100Z" stroke="url(#paint3_linear_358_7966)" stroke-width="5"/>
<path fill-rule="evenodd" clip-rule="evenodd" d="M122.5 181.481C165.852 181.481 200.995 145.001 200.995 100C200.995 54.999 165.852 18.5185 122.5 18.5185C79.1483 18.5185 44.0049 54.999 44.0049 100C44.0049 145.001 79.1483 181.481 122.5 181.481ZM122.5 175.926C162.896 175.926 195.643 141.933 195.643 100C195.643 58.0673 162.896 24.0741 122.5 24.0741C82.1043 24.0741 49.3569 58.0673 49.3569 100C49.3569 141.933 82.1043 175.926 122.5 175.926Z" fill="url(#paint4_linear_358_7966)"/>
<path d="M140.929 136.233C139.929 136.232 138.944 135.975 138.062 135.486L123.029 127.288C122.829 127.179 122.607 127.122 122.381 127.122C122.155 127.122 121.933 127.179 121.733 127.288L106.7 135.486C105.818 135.975 104.834 136.232 103.834 136.233C102.937 136.23 102.052 136.024 101.24 135.63C100.428 135.236 99.7079 134.663 99.1307 133.951C98.5534 133.239 98.1325 132.405 97.8972 131.507C97.6619 130.609 97.6179 129.669 97.7681 128.751L100.64 111.381C100.679 111.149 100.662 110.911 100.592 110.687C100.521 110.463 100.399 110.261 100.236 110.097L88.0811 97.7944C87.26 96.9617 86.6793 95.9074 86.4046 94.7504C86.1299 93.5934 86.172 92.3798 86.5263 91.2463C86.8806 90.1129 87.5329 89.1047 88.4097 88.3356C89.2865 87.5664 90.3528 87.0668 91.4885 86.8932L108.294 84.3623C108.518 84.3273 108.731 84.2366 108.914 84.098C109.097 83.9593 109.245 83.7769 109.346 83.566L116.863 67.7574C117.371 66.6888 118.157 65.7891 119.132 65.16C120.108 64.5309 121.233 64.1975 122.381 64.1975C123.529 64.1975 124.655 64.5309 125.63 65.16C126.605 65.7891 127.391 66.6888 127.9 67.7574L135.416 83.566C135.517 83.7769 135.665 83.9593 135.848 84.098C136.032 84.2366 136.244 84.3273 136.469 84.3623L153.274 86.8932C154.409 87.0668 155.476 87.5664 156.353 88.3356C157.229 89.1047 157.882 90.1129 158.236 91.2463C158.59 92.3798 158.632 93.5934 158.358 94.7504C158.083 95.9074 157.502 96.9617 156.681 97.7944L144.526 110.097C144.363 110.261 144.241 110.463 144.171 110.687C144.1 110.911 144.083 111.149 144.122 111.381L146.994 128.751C147.144 129.669 147.1 130.609 146.865 131.507C146.63 132.405 146.209 133.239 145.632 133.951C145.054 134.663 144.335 135.236 143.522 135.63C142.71 136.024 141.825 136.23 140.929 136.233Z" fill="#053A4C"/>
<path d="M125.769 68.8541L133.285 84.6627C133.557 85.2315 133.958 85.7234 134.453 86.0964C134.948 86.4694 135.522 86.7125 136.128 86.8047L152.933 89.3418C153.63 89.447 154.285 89.7525 154.823 90.2239C155.362 90.6953 155.763 91.3136 155.981 92.0091C156.198 92.7046 156.224 93.4495 156.056 94.1595C155.887 94.8695 155.53 95.5164 155.026 96.0269L142.865 108.329C142.427 108.773 142.1 109.321 141.912 109.925C141.723 110.53 141.679 111.173 141.783 111.799L144.649 129.175C144.77 129.896 144.693 130.638 144.428 131.316C144.163 131.994 143.721 132.581 143.15 133.011C142.58 133.441 141.905 133.697 141.202 133.749C140.499 133.801 139.795 133.647 139.172 133.305L124.169 125.107C123.627 124.809 123.022 124.654 122.409 124.654C121.795 124.654 121.191 124.809 120.649 125.107L105.598 133.305C104.975 133.647 104.272 133.801 103.568 133.749C102.865 133.697 102.19 133.441 101.62 133.011C101.049 132.581 100.607 131.994 100.342 131.316C100.077 130.638 100 129.896 100.121 129.175L102.987 111.799C103.091 111.173 103.047 110.53 102.858 109.925C102.67 109.321 102.343 108.773 101.905 108.329L89.7442 96.0269C89.2398 95.5164 88.8831 94.8695 88.7144 94.1595C88.5457 93.4495 88.5716 92.7046 88.7894 92.0091C89.0072 91.3136 89.408 90.6953 89.9467 90.2239C90.4853 89.7525 91.1402 89.447 91.8374 89.3418L108.642 86.8047C109.248 86.7125 109.822 86.4694 110.317 86.0964C110.812 85.7234 111.213 85.2315 111.485 84.6627L119.001 68.8541C119.312 68.1977 119.794 67.6449 120.392 67.2582C120.99 66.8716 121.68 66.6667 122.385 66.6667C123.09 66.6667 123.78 66.8716 124.378 67.2582C124.976 67.6449 125.458 68.1977 125.769 68.8541Z" fill="url(#paint5_linear_358_7966)"/>
<path opacity="0.15" d="M198.022 37.963C193.495 43.5866 189.377 47.929 184.354 52.9776C183.982 53.361 183.61 53.7444 183.238 54.1279C182.99 54.3835 182.804 54.5752 182.556 54.8308C181.626 55.7255 180.695 56.6841 179.703 57.5788C179.331 57.8983 179.021 58.2178 178.649 58.6012C178.401 58.793 178.153 59.0486 177.967 59.2403C177.657 59.5598 177.347 59.8154 177.037 60.0711C144.047 90.1705 102.128 108.511 57.8524 111.834C57.4184 111.834 57.0463 111.898 56.6122 111.898C56.3022 111.898 55.9921 111.962 55.6821 111.962C55.186 111.962 54.7519 112.026 54.2558 112.026C52.6436 112.09 51.0313 112.218 49.419 112.218C48.9229 112.218 48.3648 112.282 47.8687 112.282C46.6285 112.346 45.3883 112.346 44.2101 112.346C38.4431 112.346 32.6761 112.154 26.8472 111.643C26.4131 107.872 26.165 103.974 26.165 100.076C26.165 44.7977 69.6345 0 123.212 0C147.334 0 168.84 9.60968 185.831 24.6914C190.234 28.5896 194.301 33.2979 198.022 37.963Z" fill="url(#paint6_linear_358_7966)"/>
<defs>
<filter id="filter0_f_358_7966" x="-29.6323" y="-62.3303" width="186.494" height="192.897" filterUnits="userSpaceOnUse" color-interpolation-filters="sRGB">
<feFlood flood-opacity="0" result="BackgroundImageFix"/>
<feBlend mode="normal" in="SourceGraphic" in2="BackgroundImageFix" result="shape"/>
<feGaussianBlur stdDeviation="29.5" result="effect1_foregroundBlur_358_7966"/>
</filter>
<filter id="filter1_f_358_7966" x="96.335" y="-66.5811" width="176.665" height="201.398" filterUnits="userSpaceOnUse" color-interpolation-filters="sRGB">
<feFlood flood-opacity="0" result="BackgroundImageFix"/>
<feBlend mode="normal" in="SourceGraphic" in2="BackgroundImageFix" result="shape"/>
<feGaussianBlur stdDeviation="29.5" result="effect1_foregroundBlur_358_7966"/>
</filter>
<filter id="filter2_f_358_7966" x="81.9624" y="72.5107" width="188.347" height="191.023" filterUnits="userSpaceOnUse" color-interpolation-filters="sRGB">
<feFlood flood-opacity="0" result="BackgroundImageFix"/>
<feBlend mode="normal" in="SourceGraphic" in2="BackgroundImageFix" result="shape"/>
<feGaussianBlur stdDeviation="29.5" result="effect1_foregroundBlur_358_7966"/>
</filter>
<filter id="filter3_f_358_7966" x="-29.8335" y="63.8687" width="188.347" height="191.023" filterUnits="userSpaceOnUse" color-interpolation-filters="sRGB">
<feFlood flood-opacity="0" result="BackgroundImageFix"/>
<feBlend mode="normal" in="SourceGraphic" in2="BackgroundImageFix" result="shape"/>
<feGaussianBlur stdDeviation="29.5" result="effect1_foregroundBlur_358_7966"/>
</filter>
<linearGradient id="paint0_linear_358_7966" x1="227.458" y1="179.63" x2="195.897" y2="160.627" gradientUnits="userSpaceOnUse">
<stop offset="0.01" stop-color="#9D00FF"/>
<stop offset="0.41" stop-color="#7B00DB"/>
<stop offset="0.53" stop-color="#9825E4"/>
<stop offset="0.62" stop-color="#6800B5"/>
<stop offset="1" stop-color="#400071"/>
</linearGradient>
<linearGradient id="paint1_linear_358_7966" x1="13.3025" y1="179.599" x2="50.2921" y2="154.644" gradientUnits="userSpaceOnUse">
<stop offset="0.01" stop-color="#9D00FF"/>
<stop offset="0.41" stop-color="#7B00DB"/>
<stop offset="0.53" stop-color="#9825E4"/>
<stop offset="0.62" stop-color="#6800B5"/>
<stop offset="1" stop-color="#400071"/>
</linearGradient>
<linearGradient id="paint2_linear_358_7966" x1="122.5" y1="24.0741" x2="122.5" y2="175.926" gradientUnits="userSpaceOnUse">
<stop stop-color="#2A99A4"/>
<stop offset="0.484375" stop-color="#10667B"/>
<stop offset="1" stop-color="#184A61"/>
</linearGradient>
<linearGradient id="paint3_linear_358_7966" x1="122.5" y1="24.0741" x2="122.5" y2="175.926" gradientUnits="userSpaceOnUse">
<stop stop-color="#3F879B"/>
<stop offset="1" stop-color="#062C3C"/>
</linearGradient>
<linearGradient id="paint4_linear_358_7966" x1="122.5" y1="18.5185" x2="122.5" y2="181.481" gradientUnits="userSpaceOnUse">
<stop stop-color="#3C4E56"/>
<stop offset="1" stop-color="#ADBED2"/>
</linearGradient>
<linearGradient id="paint5_linear_358_7966" x1="122.385" y1="67.3171" x2="122.385" y2="125.712" gradientUnits="userSpaceOnUse">
<stop offset="0.08" stop-color="#C8D0E5"/>
<stop offset="0.23" stop-color="#FAFAFA"/>
<stop offset="0.39" stop-color="#C8D1E2"/>
<stop offset="0.59" stop-color="#566B7C"/>
<stop offset="1" stop-color="#A9B8CF"/>
</linearGradient>
<linearGradient id="paint6_linear_358_7966" x1="71.5751" y1="15.4161" x2="128.718" y2="92.4677" gradientUnits="userSpaceOnUse">
<stop offset="0.5084" stop-color="white" stop-opacity="0"/>
<stop offset="1" stop-color="white"/>
</linearGradient>
</defs>
</svg>
