<svg width="34" height="32" viewBox="0 0 34 32" fill="none" xmlns="http://www.w3.org/2000/svg">
	<g clip-path="url(#clip0_212_2614)">
		<path d="M26.9202 6H7.03387C5.01071 6 3.37061 7.567 3.37061 9.5V22.5C3.37061 24.433 5.01071 26 7.03387 26H26.9202C28.9433 26 30.5834 24.433 30.5834 22.5V9.5C30.5834 7.567 28.9433 6 26.9202 6Z" stroke="white" stroke-width="2" stroke-linecap="round" stroke-linejoin="round" />
		<path d="M3.02148 12H30.2343" stroke="white" stroke-width="2" stroke-linejoin="round" />
		<mask id="path-3-outside-1_212_2614" maskUnits="userSpaceOnUse" x="25.0942" y="20.6667" width="11" height="11" fill="black">
			<rect fill="white" x="25.0942" y="20.6667" width="11" height="11" />
			<path fill-rule="evenodd" clip-rule="evenodd" d="M31.6297 22.6667H29.5364V25.0001H27.0942V27.0001H29.5364V29.3334H31.6297V27.0001H34.0719V25.0001H31.6297V22.6667Z" />
		</mask>
		<path fill-rule="evenodd" clip-rule="evenodd" d="M31.6297 22.6667H29.5364V25.0001H27.0942V27.0001H29.5364V29.3334H31.6297V27.0001H34.0719V25.0001H31.6297V22.6667Z" fill="white" />
		<path d="M29.5364 22.6667V20.6667H27.5364V22.6667H29.5364ZM31.6297 22.6667H33.6297V20.6667H31.6297V22.6667ZM29.5364 25.0001V27.0001H31.5364V25.0001H29.5364ZM27.0942 25.0001V23.0001H25.0942V25.0001H27.0942ZM27.0942 27.0001H25.0942V29.0001H27.0942V27.0001ZM29.5364 27.0001H31.5364V25.0001H29.5364V27.0001ZM29.5364 29.3334H27.5364V31.3334H29.5364V29.3334ZM31.6297 29.3334V31.3334H33.6297V29.3334H31.6297ZM31.6297 27.0001V25.0001H29.6297V27.0001H31.6297ZM34.0719 27.0001V29.0001H36.0719V27.0001H34.0719ZM34.0719 25.0001H36.0719V23.0001H34.0719V25.0001ZM31.6297 25.0001H29.6297V27.0001H31.6297V25.0001ZM29.5364 24.6667H31.6297V20.6667H29.5364V24.6667ZM31.5364 25.0001V22.6667H27.5364V25.0001H31.5364ZM27.0942 27.0001H29.5364V23.0001H27.0942V27.0001ZM29.0942 27.0001V25.0001H25.0942V27.0001H29.0942ZM29.5364 25.0001H27.0942V29.0001H29.5364V25.0001ZM31.5364 29.3334V27.0001H27.5364V29.3334H31.5364ZM31.6297 27.3334H29.5364V31.3334H31.6297V27.3334ZM29.6297 27.0001V29.3334H33.6297V27.0001H29.6297ZM34.0719 25.0001H31.6297V29.0001H34.0719V25.0001ZM32.0719 25.0001V27.0001H36.0719V25.0001H32.0719ZM31.6297 27.0001H34.0719V23.0001H31.6297V27.0001ZM29.6297 22.6667V25.0001H33.6297V22.6667H29.6297Z" fill="#4CD080" mask="url(#path-3-outside-1_212_2614)" />
		<path d="M11.7435 18.75H8.60352V20H11.7435V18.75Z" stroke="white" stroke-width="2" stroke-linejoin="round" />
	</g>
	<defs>
		<clipPath id="clip0_212_2614">
			<rect width="33.4927" height="32" fill="white" transform="translate(0.230469)" />
		</clipPath>
	</defs>
</svg>
