<svg width="23" height="23" viewBox="0 0 23 23" fill="none" xmlns="http://www.w3.org/2000/svg">
	<path d="M12.6187 0.0194836C12.3452 0.0741711 3.50771 3.43745 3.20146 3.60151C2.60537 3.9187 2.04756 4.58589 1.78506 5.3023C1.65928 5.64136 1.65381 5.64683 1.64287 9.00464C1.62646 11.6351 1.64287 12.3953 1.69209 12.5046C1.73037 12.5812 1.86162 12.6906 1.97646 12.7453C2.1624 12.8382 2.22256 12.8437 2.41396 12.7835C4.16396 12.275 5.83193 12.4281 7.25928 13.2265C8.39131 13.8664 9.39209 14.982 9.8624 16.1414C10.1796 16.9125 10.278 17.3718 10.3054 18.225C10.3382 19.1109 10.2671 19.5703 9.96084 20.4617C9.73115 21.1453 9.72568 21.3093 9.9335 21.539L10.0921 21.7195H14.489C18.5741 21.7195 18.9022 21.714 19.2304 21.621C20.9038 21.1453 22.0632 19.8437 22.2929 18.1648C22.4077 17.3445 22.3476 17.0218 22.003 16.6828C21.7132 16.3875 21.4999 16.3328 20.6577 16.3328C19.6351 16.3328 19.0827 16.1523 18.5796 15.6546C18.0819 15.1679 17.9015 14.7085 17.9343 13.9921C17.9562 13.4015 18.1202 13.0187 18.5304 12.5867C19.0663 12.0234 19.6022 11.8539 20.8655 11.8484C21.4288 11.8484 21.571 11.832 21.7515 11.739C22.2218 11.4984 22.3858 11.0609 22.3366 10.1859C22.2655 9.03745 21.9046 8.22261 21.1226 7.44604C20.5647 6.88823 20.2093 6.65855 19.5257 6.41245L19.0444 6.24292L17.0647 6.22651L15.0851 6.21011L15.0687 3.87495L15.0522 1.53979L14.8718 1.17339C14.6476 0.714014 14.2155 0.309326 13.778 0.145264C13.4663 0.0304203 12.8812 -0.0352039 12.6187 0.0194836ZM13.3022 1.75854L13.439 1.8898V4.05542V6.21558H9.35381C5.01162 6.21558 4.946 6.22105 4.246 6.48355C4.08193 6.54917 3.80303 6.68589 3.62803 6.78979C3.45303 6.8937 3.29443 6.9812 3.2835 6.9812C3.26709 6.9812 3.26709 6.72964 3.27803 6.41792C3.30537 5.76167 3.39834 5.52651 3.78115 5.19839C3.9835 5.01792 4.3335 4.87026 6.08896 4.20855C7.23193 3.77651 9.2335 3.02183 10.5405 2.52964C11.8476 2.03198 12.9741 1.62729 13.0452 1.62729C13.1163 1.62183 13.2312 1.68198 13.3022 1.75854ZM14.5765 10.1531C14.6749 10.2132 14.8007 10.339 14.8608 10.4375C15.0796 10.7984 14.9483 11.2906 14.5765 11.5203C14.4015 11.6242 14.2921 11.6296 11.3937 11.6296H8.39131L8.15615 11.389C7.92646 11.1648 7.91553 11.1375 7.91553 10.8367C7.91553 10.5359 7.92646 10.5085 8.15615 10.2843L8.39131 10.0437H11.3937C14.2921 10.0437 14.4015 10.0492 14.5765 10.1531Z" fill="white" />
	<path d="M19.8815 13.0515C19.4112 13.1937 19.1159 13.5546 19.083 14.0249C19.0612 14.4242 19.2198 14.7577 19.5534 14.9929L19.794 15.157L20.833 15.1734C21.5713 15.1843 21.9268 15.1734 22.0416 15.1242C22.2823 15.0202 22.3534 14.7906 22.3534 14.0906C22.3534 13.057 22.2713 12.9968 20.9205 13.0023C20.4284 13.0023 19.9635 13.0242 19.8815 13.0515Z" fill="white" />
	<path d="M3.73206 14.1507C2.46878 14.3475 1.39143 15.0366 0.691434 16.103C-0.0687218 17.2624 -0.210909 18.7444 0.308622 20.0843C0.778934 21.2983 1.95472 22.3374 3.25081 22.6874C3.8469 22.846 4.82034 22.846 5.42737 22.6819C6.98597 22.2718 8.20003 21.0358 8.5719 19.4936C8.71956 18.8702 8.71956 17.9788 8.5719 17.3936C8.17815 15.8679 6.95315 14.6374 5.43831 14.2546C4.92425 14.1288 4.17503 14.0796 3.73206 14.1507ZM4.74378 16.1249C5.08831 16.3655 5.15393 16.5022 5.17034 17.1038L5.19222 17.6452H5.64065C6.3844 17.6452 6.78362 17.9405 6.78362 18.5038C6.78362 18.7772 6.66878 18.9686 6.3844 19.16C6.23128 19.2694 6.13284 19.2858 5.69534 19.2858H5.18128V19.7343C5.18128 20.2811 5.0555 20.5983 4.78753 20.7624C4.41018 20.9921 3.88518 20.8554 3.65003 20.478C3.56253 20.3304 3.54065 20.1991 3.54065 19.789V19.2858H2.99925C2.5344 19.2858 2.44143 19.2694 2.28284 19.16C1.79612 18.8319 1.78518 18.1921 2.2555 17.8311C2.44143 17.689 2.50706 17.6725 2.99925 17.6561L3.54065 17.6343V17.1038C3.54065 16.6772 3.56253 16.546 3.65003 16.3983C3.88518 16.0155 4.39378 15.8897 4.74378 16.1249Z" fill="white" />
</svg>
