<svg width="24" height="24" viewBox="0 0 24 24" fill="none" xmlns="http://www.w3.org/2000/svg">
	<path d="M23.5396 6.31963C23.4545 6.11397 23.3103 5.93819 23.1252 5.81453C22.9401 5.69088 22.7225 5.62489 22.4999 5.62494H19.8581C19.414 4.94146 18.8079 4.37838 18.0936 3.98582C17.3793 3.59326 16.579 3.38341 15.764 3.37494C15.1281 3.3664 14.497 3.48518 13.9077 3.72427C13.3184 3.96336 12.7829 4.31794 12.3328 4.76713C11.8698 5.22115 11.5024 5.76316 11.252 6.36127C11.0017 6.95939 10.8735 7.60154 10.8749 8.24994V8.32307C7.42213 7.23838 4.65182 4.48869 4.62182 4.45775C4.47087 4.30563 4.27961 4.19979 4.07054 4.15268C3.86148 4.10558 3.64331 4.11916 3.4417 4.19185C3.2401 4.26453 3.06345 4.39329 2.93254 4.56296C2.80163 4.73264 2.72191 4.93618 2.70276 5.14963C2.11119 11.7281 5.01369 15.2549 6.64588 16.6921C5.28744 18.0778 3.37494 18.8137 3.35619 18.8212C3.19718 18.8804 3.05361 18.9748 2.93624 19.0973C2.81887 19.2198 2.73074 19.3673 2.67844 19.5287C2.62614 19.6902 2.61102 19.8613 2.63423 20.0294C2.65744 20.1975 2.71836 20.3581 2.81244 20.4993C2.99994 20.7703 4.07244 22.1249 7.49994 22.1249C14.2734 22.1249 19.9406 16.9443 20.5874 10.2534L23.2949 7.54588C23.4525 7.38862 23.5598 7.18816 23.6033 6.96988C23.6469 6.7516 23.6247 6.5253 23.5396 6.31963ZM18.7049 8.95494C18.511 9.14804 18.3946 9.40554 18.3778 9.67869C18.0131 15.3965 13.2356 19.8749 7.49994 19.8749C7.10839 19.8772 6.71715 19.8525 6.32901 19.8009C7.31244 19.1765 8.41119 18.2878 9.18744 17.1243C9.27236 16.997 9.33039 16.8536 9.35798 16.703C9.38558 16.5525 9.38215 16.3979 9.34793 16.2487C9.3137 16.0995 9.24939 15.9588 9.15893 15.8354C9.06846 15.7119 8.95375 15.6082 8.82182 15.5306C8.81057 15.524 7.66588 14.8284 6.62526 13.2412C5.58463 11.654 5.00713 9.77244 4.89463 7.63682C6.50338 8.84994 8.99994 10.3865 11.8124 10.8599C11.9738 10.8872 12.1392 10.879 12.2971 10.8357C12.4549 10.7925 12.6014 10.7154 12.7264 10.6097C12.8514 10.504 12.9518 10.3723 13.0206 10.2238C13.0894 10.0753 13.125 9.91361 13.1249 9.74994V8.24994C13.1241 7.89957 13.1935 7.55258 13.3289 7.22943C13.4643 6.90628 13.663 6.61351 13.9134 6.36838C14.1525 6.12922 14.4369 5.94026 14.7501 5.81259C15.0632 5.68493 15.3987 5.62112 15.7368 5.62494C16.248 5.63179 16.7468 5.78349 17.1753 6.06244C17.6038 6.34139 17.9443 6.73615 18.1574 7.20088C18.2452 7.40135 18.3894 7.5719 18.5726 7.69162C18.7558 7.81135 18.9699 7.87505 19.1887 7.87494H19.7812L18.7049 8.95494Z" fill="#323135" />
</svg>
