<svg width="24" height="24" viewBox="0 0 24 24" fill="none" xmlns="http://www.w3.org/2000/svg">
<path d="M23.25 1.875H0.75C0.336 1.875 0 2.211 0 2.625V21.375C0 21.789 0.336 22.125 0.75 22.125H23.25C23.664 22.125 24 21.789 24 21.375V2.625C24 2.211 23.664 1.875 23.25 1.875ZM22.5 3.375V6.375H1.5V3.375H22.5ZM1.5 20.625V7.875H22.5V20.625H1.5Z" fill="#323135"/>
<path d="M3.75 5.625C3.945 5.625 4.14 5.54625 4.27875 5.40375C4.42125 5.265 4.5 5.07 4.5 4.875C4.5 4.68 4.42125 4.485 4.27875 4.3425C4.00125 4.065 3.49875 4.065 3.2175 4.34625C3.07875 4.485 3 4.67625 3 4.875C3 5.07375 3.07875 5.265 3.22125 5.4075C3.36 5.54625 3.55463 5.625 3.75 5.625Z" fill="#323135"/>
<path d="M6 5.625C6.195 5.625 6.39 5.54625 6.5325 5.40375C6.67125 5.265 6.75 5.07 6.75 4.875C6.75 4.68 6.67125 4.485 6.52875 4.3425C6.25125 4.065 5.74875 4.065 5.4675 4.34625C5.32875 4.485 5.25 4.68 5.25 4.875C5.25 5.07 5.32875 5.265 5.47125 5.4075C5.61 5.54625 5.80463 5.625 6 5.625Z" fill="#323135"/>
<path d="M8.25 5.625C8.44875 5.625 8.64 5.54625 8.77875 5.40375C8.92125 5.265 9 5.07375 9 4.875C9 4.68 8.92125 4.485 8.77875 4.3425C8.50125 4.065 7.99875 4.065 7.7175 4.34625C7.57875 4.485 7.5 4.68 7.5 4.875C7.5 5.07375 7.57875 5.265 7.72125 5.40375C7.86 5.54625 8.05462 5.625 8.25 5.625Z" fill="#323135"/>
<path d="M11.625 9.375H3.75C3.336 9.375 3 9.711 3 10.125C3 10.539 3.336 10.875 3.75 10.875H11.625C12.039 10.875 12.375 10.539 12.375 10.125C12.375 9.711 12.039 9.375 11.625 9.375Z" fill="#323135"/>
<path d="M11.625 12.375H3.75C3.336 12.375 3 12.711 3 13.125C3 13.539 3.336 13.875 3.75 13.875H11.625C12.039 13.875 12.375 13.539 12.375 13.125C12.375 12.711 12.039 12.375 11.625 12.375Z" fill="#323135"/>
<path d="M11.625 15.375H3.75C3.336 15.375 3 15.711 3 16.125C3 16.539 3.336 16.875 3.75 16.875H11.625C12.039 16.875 12.375 16.539 12.375 16.125C12.375 15.711 12.039 15.375 11.625 15.375Z" fill="#323135"/>
<path d="M20.25 9.375H14.625C14.211 9.375 13.875 9.711 13.875 10.125V16.125C13.875 16.539 14.211 16.875 14.625 16.875H20.25C20.664 16.875 21 16.539 21 16.125V10.125C21 9.711 20.664 9.375 20.25 9.375ZM19.5 15.375H15.375V10.875H19.5V15.375Z" fill="#323135"/>
</svg>
