<svg width="23" height="23" viewBox="0 0 23 23" fill="none" xmlns="http://www.w3.org/2000/svg">
	<path d="M9.86267 0.0811901C6.08923 0.578846 2.85173 2.88666 1.17282 6.27181C0.412667 7.80306 0.0626675 9.20853 0.00798002 10.964C-0.0303012 12.107 0.0681363 13.0312 0.325168 14.0538C1.79626 19.9054 7.63142 23.5859 13.5377 22.3937C18.208 21.4476 21.7627 17.696 22.4955 12.9328C22.6213 12.1179 22.6267 10.521 22.5009 9.70619C21.8009 5.13431 18.5252 1.47572 14.1283 0.354628C12.7884 0.0100956 11.1752 -0.0883408 9.86267 0.0811901ZM8.86736 4.99759C9.2447 5.15072 9.45251 5.56635 9.37048 5.99838C9.34314 6.16244 9.21735 6.3265 8.75251 6.79135L8.17829 7.38197L12.5041 7.39291C16.7752 7.40932 16.8299 7.40932 16.9775 7.52416C17.2674 7.73744 17.3549 7.91244 17.3549 8.25697C17.3549 8.6015 17.2674 8.7765 16.9775 8.98978C16.8299 9.10463 16.7752 9.10463 12.5041 9.12103L8.17829 9.13197L8.75251 9.7226C9.37595 10.3515 9.45251 10.4992 9.37048 10.9203C9.32126 11.1937 8.99314 11.5163 8.7197 11.5656C8.26579 11.6531 8.16735 11.582 6.67985 10.0999C4.72204 8.14213 4.72751 8.37728 6.62517 6.45775C8.17282 4.89916 8.35876 4.77884 8.86736 4.99759ZM14.5713 11.2046C14.9322 11.4671 17.2619 13.8515 17.322 14.0156C17.4095 14.2507 17.3931 14.5296 17.2783 14.7538C17.1416 15.0109 14.615 17.5265 14.4127 17.6031C13.7181 17.8656 13.0345 17.2804 13.2205 16.5859C13.2642 16.4328 13.4228 16.2304 13.8275 15.8312C14.1283 15.5304 14.3744 15.2679 14.3744 15.246C14.3744 15.2187 12.4549 15.2023 10.1088 15.2023C5.37829 15.2023 5.66267 15.2242 5.36735 14.8413C5.24704 14.6828 5.2197 14.5843 5.2197 14.3492C5.2197 14.021 5.32361 13.8351 5.62439 13.6273L5.80485 13.507H10.0869C12.4439 13.507 14.3744 13.4906 14.3744 13.4632C14.3744 13.4413 14.1502 13.2007 13.8767 12.9328C13.1275 12.1945 13.0072 11.7898 13.4064 11.3359C13.6142 11.1007 13.7236 11.0515 14.0791 11.0515C14.3033 11.046 14.4017 11.0788 14.5713 11.2046Z" fill="white" />
</svg>
